<?xml version="1.0" encoding="UTF-8" standalone="no"?>
<!-- Created with Inkscape (http://www.inkscape.org/) -->

<svg
   width="1000mm"
   height="1000mm"
   viewBox="0 0 1000 1000"
   version="1.1"
   id="svg5"
   inkscape:version="1.1.2 (0a00cf5339, 2022-02-04, custom)"
   sodipodi:docname="Asteroids Logo.svg"
   xmlns:inkscape="http://www.inkscape.org/namespaces/inkscape"
   xmlns:sodipodi="http://sodipodi.sourceforge.net/DTD/sodipodi-0.dtd"
   xmlns:xlink="http://www.w3.org/1999/xlink"
   xmlns="http://www.w3.org/2000/svg"
   xmlns:svg="http://www.w3.org/2000/svg">
  <sodipodi:namedview
     id="namedview7"
     pagecolor="#505050"
     bordercolor="#ffffff"
     borderopacity="1"
     inkscape:pageshadow="0"
     inkscape:pageopacity="0"
     inkscape:pagecheckerboard="1"
     inkscape:document-units="mm"
     showgrid="false"
     width="100mm"
     height="1000mm"
     inkscape:zoom="0.088388348"
     inkscape:cx="1832.8208"
     inkscape:cy="1804.5365"
     inkscape:window-width="1920"
     inkscape:window-height="1007"
     inkscape:window-x="0"
     inkscape:window-y="0"
     inkscape:window-maximized="1"
     inkscape:current-layer="layer1" />
  <defs
     id="defs2">
    <linearGradient
       inkscape:collect="always"
       id="linearGradient16429">
      <stop
         style="stop-color:#8b8b8b;stop-opacity:1"
         offset="0"
         id="stop16425" />
      <stop
         style="stop-color:#d7d7d7;stop-opacity:1"
         offset="1"
         id="stop16427" />
    </linearGradient>
    <linearGradient
       inkscape:collect="always"
       id="linearGradient16110-6">
      <stop
         style="stop-color:#000000;stop-opacity:1;"
         offset="0"
         id="stop16106" />
      <stop
         style="stop-color:#000000;stop-opacity:0;"
         offset="1"
         id="stop16108" />
    </linearGradient>
    <inkscape:path-effect
       effect="powerstroke"
       id="path-effect580"
       is_visible="true"
       lpeversion="1"
       offset_points="0.12055393,32.232366"
       not_jump="false"
       sort_points="true"
       interpolator_type="CubicBezierJohan"
       interpolator_beta="0.2"
       start_linecap_type="zerowidth"
       linejoin_type="extrp_arc"
       miter_limit="4"
       scale_width="1"
       end_linecap_type="zerowidth" />
    <inkscape:path-effect
       effect="powerstroke"
       id="path-effect277"
       is_visible="true"
       lpeversion="1"
       offset_points="0,15"
       not_jump="false"
       sort_points="true"
       interpolator_type="CubicBezierJohan"
       interpolator_beta="0.2"
       start_linecap_type="zerowidth"
       linejoin_type="extrp_arc"
       miter_limit="4"
       scale_width="1"
       end_linecap_type="zerowidth" />
    <inkscape:path-effect
       effect="powerstroke"
       id="path-effect207"
       is_visible="true"
       lpeversion="1"
       offset_points="0,11.99"
       not_jump="false"
       sort_points="true"
       interpolator_type="CubicBezierJohan"
       interpolator_beta="0.2"
       start_linecap_type="zerowidth"
       linejoin_type="extrp_arc"
       miter_limit="4"
       scale_width="1"
       end_linecap_type="zerowidth" />
    <radialGradient
       inkscape:collect="always"
       xlink:href="#linearGradient16110-6"
       id="radialGradient16112"
       cx="497.00435"
       cy="495.71354"
       fx="497.00435"
       fy="495.71354"
       r="469.69056"
       gradientTransform="matrix(1,0,0,1.0123873,0,-6.1405666)"
       gradientUnits="userSpaceOnUse" />
    <linearGradient
       inkscape:collect="always"
       xlink:href="#linearGradient16429"
       id="linearGradient16431"
       x1="152.76382"
       y1="782.5022"
       x2="840.60895"
       y2="196.89291"
       gradientUnits="userSpaceOnUse" />
  </defs>
  <g
     inkscape:label="Layer 1"
     inkscape:groupmode="layer"
     id="layer1">
    <g
       id="g16104"
       style="fill-opacity:1;fill:url(#radialGradient16112);stroke-width:1;stroke-miterlimit:4;stroke-dasharray:none">
      <g
         id="g16095"
         style="fill-opacity:1;fill:url(#radialGradient16112);stroke-width:1;stroke-miterlimit:4;stroke-dasharray:none">
        <g
           id="g16087"
           style="fill-opacity:1;fill:url(#radialGradient16112);stroke-width:1;stroke-miterlimit:4;stroke-dasharray:none">
          <g
             id="g15633"
             style="fill-opacity:1;fill:url(#radialGradient16112);stroke-width:1;stroke-miterlimit:4;stroke-dasharray:none">
            <g
               id="g15233"
               style="fill-opacity:1;fill:url(#radialGradient16112);stroke-width:1;stroke-miterlimit:4;stroke-dasharray:none">
              <g
                 id="g14921"
                 style="fill-opacity:1;fill:url(#radialGradient16112);stroke-width:1;stroke-miterlimit:4;stroke-dasharray:none">
                <g
                   id="g14523"
                   style="fill-opacity:1;fill:url(#radialGradient16112);stroke-width:1;stroke-miterlimit:4;stroke-dasharray:none">
                  <path
                     style="fill:url(#linearGradient16431);fill-opacity:1;fill-rule:nonzero;stroke:#4d4d4d;stroke-width:1;stroke-linecap:butt;stroke-linejoin:miter;stroke-miterlimit:4;stroke-dasharray:none;stroke-opacity:0"
                     d="m 163.87495,420.68292 c -1.61602,-8.37858 -3.98921,-20.10544 -7.08426,-33.35518 -2.9989,-12.83817 -5.61026,-22.53639 -7.16653,-28.15109 -4.98654,-17.99039 -9.91581,-32.75621 -14.59444,-45.50588 -4.19232,-11.4244 -8.02346,-20.77436 -10.75159,-27.90033 -2.74687,-7.17494 -3.95491,-11.06027 -4.45585,-13.81602 -0.20731,-1.14048 -0.25402,-1.90852 -0.24692,-2.4843 0.007,-0.54912 0.066,-1.25983 0.29393,-2.28946 0.48123,-2.17373 1.77224,-6.07369 5.5421,-13.25442 3.65914,-6.96984 9.02185,-15.87512 17.08699,-28.46071 7.86106,-12.26713 17.45221,-26.74676 30.10956,-45.96438 2.30118,-3.49387 5.54347,-8.27321 9.57983,-13.81416 3.93385,-5.40025 8.66196,-11.57881 14.03396,-18.01293 10.4516,-12.518 23.11383,-25.7238 36.73348,-35.92232 6.55478,-4.90827 13.03682,-8.8958 19.30298,-11.766907 6.13435,-2.810714 11.7403,-4.405258 16.8102,-4.938468 4.8513,-0.51022 9.50247,-0.08773 14.18728,1.469636 4.63353,1.540315 10.19568,4.490199 16.53402,10.124289 11.81013,10.49793 24.74947,18.51397 38.56917,24.31656 13.56858,5.69715 27.62916,9.1132 41.83871,10.84063 27.61837,3.35751 56.17469,0.37432 83.78881,-4.8531 26.98211,-5.10778 54.3607,-12.63286 80.13665,-19.32593 25.63931,-6.6576 49.35832,-12.40032 70.89994,-14.91426 15.09847,-1.762 27.93776,-4.166668 39.02391,-6.728094 10.93227,-2.525879 20.00498,-5.173177 27.12876,-7.237742 7.60167,-2.203062 11.66426,-3.324266 14.77129,-3.849598 1.26675,-0.214182 1.85763,-0.219161 1.84664,-0.219255 -0.011,-9.4e-5 -0.62469,-0.03714 -1.26477,-0.210353 -0.71741,-0.19414 -1.17597,-0.436148 -1.28165,-0.498312 -0.0482,-0.02835 0.43035,0.249691 1.42711,1.157418 2.20668,2.009586 5.68063,5.893302 11.01181,13.350423 5.20951,7.286933 11.47044,16.951103 19.47714,29.914783 7.93762,12.85183 17.24149,28.3737 28.64705,47.42221 10.68208,17.84022 21.05755,32.25509 31.01298,44.14082 9.93146,11.85708 19.2524,20.96754 27.74389,28.33009 8.31665,7.21096 15.80131,12.6913 21.01869,16.61717 2.71805,2.04522 4.61629,3.51121 6.13464,4.79024 1.47875,1.24568 2.13649,1.93472 2.39123,2.2277 0.21876,0.25161 -0.0655,-0.0665 -0.31471,-0.57085 -0.24872,-0.50339 -0.40255,-1.121 -0.38974,-1.04876 0.0127,0.0713 0.13757,0.83029 0.0598,2.5986 -0.0787,1.78996 -0.35316,4.36605 -1.02071,7.99318 -1.35926,7.38552 -4.05083,17.58391 -8.67513,32.14977 -4.57253,14.40278 -10.76724,32.25509 -18.86959,54.81195 -2.16569,6.02926 -5.30753,12.63965 -9.41408,20.35418 -4.02823,7.56739 -8.80708,15.83444 -13.7244,24.79237 -4.85778,8.84947 -10.00013,18.67268 -14.40554,29.1197 -4.41791,10.47667 -8.29006,22.02501 -10.46867,34.5211 -2.19307,12.57907 -2.64753,25.99559 -0.33901,40.09826 2.30781,14.0981 7.26153,28.17361 15.15032,42.19726 7.83814,13.93361 18.45878,27.6181 31.98572,41.20652 13.51002,13.57143 30.09517,27.2241 50.09071,41.1012 12.47971,8.66105 21.26301,15.97613 27.3334,22.15059 6.07056,6.17465 8.79776,10.57353 10.01792,13.32066 0.58937,1.32692 0.85208,2.32121 0.97739,3.05352 0.12415,0.72555 0.1605,1.46758 0.0874,2.33371 -0.1523,1.80377 -0.8422,4.80901 -3.21121,9.66947 -2.41551,4.95583 -6.04319,10.78448 -11.22511,18.22288 -5.06519,7.27083 -11.30265,15.61505 -18.12767,25.04582 -13.69956,18.92994 -29.71349,42.22748 -43.3987,71.43011 -11.70723,24.98189 -20.95619,44.07998 -28.54708,58.66361 -7.72042,14.83248 -13.17168,23.90493 -17.1705,29.373 -1.94767,2.66329 -3.11304,3.85961 -3.52877,4.24467 -0.33286,0.30831 0.46165,-0.5072 2.40289,-1.3356 1.00105,-0.42719 2.16458,-0.79558 3.44906,-1.0353 1.28284,-0.23942 2.4791,-0.31193 3.52088,-0.28311 2.03144,0.0562 2.95712,0.44379 2.5949,0.32162 -0.55827,-0.18829 -1.69401,-0.64186 -4.17444,-1.80672 -2.29838,-1.07937 -5.37913,-2.60019 -9.0966,-4.30842 -7.5751,-3.48085 -17.39442,-7.52114 -29.81395,-10.39246 -12.49073,-2.88778 -26.87805,-4.42797 -43.76129,-3.6148 -16.87868,0.81296 -35.92867,3.96165 -57.73578,10.19278 -36.55791,10.44601 -63.59407,16.21612 -83.52042,18.73535 -9.95898,1.25907 -17.77344,1.65736 -23.85082,1.51146 -6.12105,-0.14697 -10.01981,-0.83643 -12.3342,-1.48656 -2.25239,-0.63271 -2.61662,-1.06557 -2.36283,-0.86963 0.25461,0.19657 0.87688,0.9756 0.93164,1.07921 0.0549,0.10393 -0.30964,-0.60208 -0.65219,-2.44809 -0.36607,-1.97273 -0.62825,-4.64022 -0.76334,-8.42964 -0.2628,-7.37187 0.23099,-17.58061 -0.80305,-29.6277 -0.51332,-5.9804 -1.48567,-12.70718 -3.49258,-19.62729 -2.03847,-7.02892 -5.18235,-14.39084 -10.08349,-21.44658 -4.96745,-7.1512 -11.32605,-13.38659 -19.09278,-18.48966 -7.70642,-5.06345 -16.36356,-8.73046 -25.72676,-11.28047 -9.36406,-2.55021 -19.65333,-4.04412 -30.83949,-4.6565 -11.25294,-0.61601 -23.73914,-0.35688 -37.57079,0.75636 -28.14264,2.26504 -50.94322,7.65279 -69.25413,15.96768 -9.28519,4.21637 -17.46797,9.21028 -24.57125,14.95772 -7.16004,5.79336 -13.04365,12.20833 -17.77421,19.05981 -4.74755,6.87611 -8.15808,13.93618 -10.57358,20.85323 -2.41752,6.92284 -3.80956,13.61744 -4.59434,19.75455 -0.78698,6.15435 -0.97781,11.86952 -0.93916,16.80795 0.0384,4.90648 0.31185,9.38392 0.5096,12.62765 0.20341,3.33676 0.28968,5.76964 0.2851,6.02034 -0.002,0.12589 -0.0461,-0.32122 0.22434,-1.8547 0.21553,-1.22202 0.90396,-4.55709 3.19787,-8.46138 1.21807,-2.07314 2.94516,-4.40231 5.34955,-6.61574 2.44712,-2.25276 5.30222,-4.11241 8.45247,-5.44857 3.11812,-1.32253 6.10341,-1.95491 8.69391,-2.18882 2.54839,-0.23011 4.69133,-0.0744 6.2671,0.15193 2.97843,0.42776 4.85485,1.24466 5.17713,1.38573 0.45056,0.19724 0.32397,0.18172 -0.5355,-0.33769 -1.78265,-1.07732 -4.81608,-3.15645 -9.60049,-6.82064 -4.70437,-3.60288 -10.56828,-8.32483 -17.86848,-14.38064 -14.73881,-12.22643 -34.65082,-29.3226 -61.17419,-52.17216 -6.51086,-5.60901 -14.37505,-10.9237 -21.71408,-15.64328 -7.78675,-5.0075 -16.02733,-10.01406 -24.34749,-15.24495 -17.45836,-10.97608 -34.06762,-22.18193 -47.8465,-34.95812 -6.95756,-6.45127 -12.76844,-12.92684 -17.35221,-19.46826 -4.655298,-6.6435 -7.936938,-13.18328 -9.962213,-19.79463 -2.040783,-6.66197 -2.909279,-13.7586 -2.274968,-21.58114 0.659593,-8.13431 2.960131,-17.45919 7.844718,-28.33196 12.326403,-27.43775 23.602613,-49.6204 32.702183,-67.73238 9.8887,-19.68265 18.20285,-36.48561 24.51006,-53.33142 6.96206,-18.59484 11.12506,-36.38325 12.34606,-56.00738 1.32599,-21.3116 -0.95598,-43.26152 -5.51758,-66.76827 z m -63.29115,12.2446 c 3.90014,20.09818 5.336,36.4285 4.46144,50.48445 -0.77439,12.44625 -3.34326,23.96048 -8.377694,37.40685 -4.906693,13.1052 -11.651177,26.91073 -21.741555,46.99482 -8.980122,17.87422 -20.903288,41.32108 -33.902008,70.25537 -7.47274,16.63384 -11.967514,33.16468 -13.29528,49.53912 -1.300155,16.03393 0.489242,31.30291 4.891267,45.67297 4.280311,13.97273 10.8691,26.57992 18.806293,37.90695 7.745548,11.05354 16.79324,20.91672 26.314497,29.74513 18.422878,17.08224 39.31645,30.91435 57.36632,42.26232 8.82301,5.54703 17.02608,10.54072 23.79051,14.89078 6.96076,4.47633 11.61839,7.77409 14.50671,10.26235 26.40089,22.74403 46.7965,40.25982 62.09154,52.94767 7.59656,6.30166 14.18041,11.61762 19.83048,15.94478 5.50213,4.21385 10.6954,7.93735 15.4543,10.81332 2.39541,1.44763 5.10688,2.94157 8.02673,4.21975 2.78363,1.21855 6.75475,2.68705 11.50994,3.36998 2.46201,0.35359 5.41204,0.53797 8.69452,0.24157 3.32342,-0.30009 6.96883,-1.09328 10.68042,-2.66753 3.7428,-1.58748 7.12396,-3.78906 10.03689,-6.47063 2.86947,-2.64156 5.00151,-5.48544 6.57052,-8.15587 2.99473,-5.09709 4.16899,-9.95409 4.70582,-12.99777 0.56085,-3.17984 0.70643,-6.0655 0.74479,-8.16447 0.0721,-3.94705 -0.22247,-8.31085 -0.39378,-11.12087 -0.20188,-3.3117 -0.36873,-6.22021 -0.39213,-9.20962 -0.0228,-2.91935 0.0988,-5.61123 0.42046,-8.12667 0.31799,-2.48671 0.819,-4.69708 1.51086,-6.67832 0.67767,-1.94058 1.56894,-3.75174 2.76157,-5.47909 1.17933,-1.70807 2.83439,-3.59785 5.27467,-5.57234 2.44983,-1.98222 5.87086,-4.19389 10.67602,-6.37589 9.6595,-4.38633 24.69505,-8.54989 47.77202,-10.40723 11.61654,-0.93495 21.1277,-1.06907 28.87507,-0.64496 7.73121,0.42324 13.37651,1.38517 17.42382,2.48742 3.99153,1.08707 6.1777,2.24108 7.26764,2.95722 0.99397,0.65308 1.35879,1.11999 1.54685,1.39073 0.27292,0.3929 0.65935,1.05527 1.11464,2.62518 0.47193,1.62729 0.89675,3.91225 1.17762,7.18455 0.54516,6.35139 0.21773,15.4692 0.6078,26.41124 0.18952,5.31633 0.61993,11.51127 1.8044,17.89447 1.18954,6.41042 3.24756,13.63289 7.04196,20.81152 3.87429,7.3297 9.32083,14.15163 16.66566,19.82233 7.23453,5.58549 15.48914,9.42395 24.32465,11.90591 8.71359,2.44772 18.16539,3.62872 28.22051,3.87015 10.05171,0.24132 21.18006,-0.44643 33.48369,-2.00193 24.41074,-3.08617 54.90619,-9.78036 93.1463,-20.70704 17.80615,-5.0879 31.92552,-7.24722 43.12591,-7.78668 11.06155,-0.53277 19.51578,0.50145 26.13913,2.03273 6.61394,1.5291 12.06682,3.70185 17.41806,6.16081 2.71985,1.24981 5.48494,2.61477 8.61054,4.08262 2.93175,1.37681 6.79128,3.12904 10.97509,4.54014 4.27078,1.44042 9.80873,2.85693 16.2241,3.03446 3.24336,0.0897 6.62187,-0.13931 10.08925,-0.78643 3.46718,-0.64709 6.81583,-1.67362 10.0259,-3.04347 6.38975,-2.72674 11.69377,-6.57977 16.10068,-10.66157 4.35375,-4.03255 8.22605,-8.65585 11.75827,-13.4859 6.93769,-9.48675 14.18111,-22.03033 22.31779,-37.66254 8.22636,-15.8045 17.93123,-35.87867 29.73764,-61.07218 11.09637,-23.67836 24.30254,-43.10132 37.24933,-60.99108 6.18133,-8.54132 13.08326,-17.78658 18.79888,-25.99107 5.84676,-8.39274 11.68971,-17.4133 16.2783,-26.82758 4.62809,-9.49535 8.47637,-20.37267 9.49948,-32.49017 0.51423,-6.0904 0.29829,-12.31478 -0.7823,-18.62989 -1.07909,-6.3063 -2.97255,-12.42449 -5.60379,-18.34858 -5.21924,-11.75082 -13.18624,-22.4025 -22.96354,-32.34743 -9.77505,-9.94265 -21.98715,-19.81119 -36.54772,-29.91637 -17.5193,-12.15857 -30.95064,-23.36633 -41.15892,-33.62101 -10.20196,-10.24834 -17.00441,-19.3634 -21.48735,-27.33259 -4.44156,-7.8956 -6.70832,-14.841 -7.71734,-21.005 -1.01171,-6.18053 -0.87477,-12.28857 0.22776,-18.61251 1.12145,-6.43239 3.26209,-13.19542 6.36129,-20.54489 3.12333,-7.40668 7.02621,-14.96724 11.51648,-23.1472 4.45194,-8.11015 9.35233,-16.5677 14.11868,-25.52172 4.71141,-8.8508 9.49122,-18.58641 13.17901,-28.85319 8.17132,-22.74885 14.69528,-41.51425 19.64266,-57.09775 4.92232,-15.50459 8.55124,-28.67985 10.6324,-39.9878 1.0567,-5.74157 1.78256,-11.35623 2.02328,-16.82899 0.2432,-5.52938 0.004,-11.09319 -0.98696,-16.68239 -1.00767,-5.68498 -2.74747,-11.1089 -5.29034,-16.25558 -2.5343,-5.12929 -5.60923,-9.46392 -8.83251,-13.17114 -3.16426,-3.63933 -6.48781,-6.68984 -9.50707,-9.23321 -2.98807,-2.5171 -6.12125,-4.9021 -8.90697,-6.99824 -5.85358,-4.40457 -11.29334,-8.38921 -17.54792,-13.81226 -6.13682,-5.32093 -13.01068,-12.01038 -20.55508,-21.01758 -7.61015,-9.0857 -16.04478,-20.70023 -25.12399,-35.86348 -11.34264,-18.94343 -20.8907,-34.87552 -29.10832,-48.18071 -8.22802,-13.322013 -15.39256,-24.452963 -21.88268,-33.531173 -6.4393,-9.00713 -12.97027,-17.075841 -20.04816,-23.521558 -3.6686,-3.340922 -7.67168,-6.426591 -12.14582,-9.058613 -4.54742,-2.675118 -9.39204,-4.764784 -14.56572,-6.164835 -5.18262,-1.402472 -10.21938,-1.984308 -15.0221,-2.025457 -4.74547,-0.04066 -9.1749,0.447606 -13.14604,1.119043 -7.49166,1.266684 -15.39143,3.589152 -21.96839,5.495241 -7.21802,2.091875 -14.70401,4.266911 -23.6965,6.344609 -8.99473,2.078207 -19.47724,4.048387 -31.98416,5.507956 -26.48063,3.09033 -54.13307,9.928417 -79.6294,16.548885 -27.12995,7.044665 -51.6641,13.788975 -75.92537,18.381693 -24.59903,4.656658 -45.77308,6.417429 -64.01885,4.199324 -9.1491,-1.112239 -17.31671,-3.200984 -24.66161,-6.284947 -7.40787,-3.110404 -14.28455,-7.359487 -20.69775,-13.060127 -12.16358,-10.812103 -25.23143,-18.530167 -39.0264,-23.116009 -14.06157,-4.674467 -28.0037,-5.802361 -41.26569,-4.407574 -13.37862,1.407054 -25.7907,5.344394 -36.92023,10.443863 -11.3412,5.196453 -21.76331,11.787653 -31.08976,18.771382 -19.09588,14.299171 -35.37086,31.586707 -47.57838,46.207787 -6.43838,7.71133 -12.04143,15.03851 -16.65511,21.37199 -4.74291,6.51088 -8.56569,12.14415 -11.31098,16.31232 -12.47819,18.94561 -22.404039,33.93059 -30.549272,46.64117 -8.296911,12.94727 -14.888992,23.75604 -19.887606,33.27728 -5.177025,9.86106 -9.218159,19.40362 -11.405861,29.28555 -1.144587,5.17014 -1.749445,10.28286 -1.812957,15.42782 -0.06466,5.23771 0.436244,10.16011 1.281381,14.80938 1.664201,9.15511 4.828872,17.89406 7.677618,25.33509 3.186315,8.32277 6.689524,16.84901 10.436532,27.05992 4.143642,11.29176 8.51926,24.38627 12.990359,40.51693 1.393564,5.02765 3.768804,13.84231 6.514434,25.59594 2.846551,12.18566 5.046221,23.04636 6.560962,30.89987 z"
                     id="path578"
                     inkscape:path-effect="#path-effect580"
                     inkscape:original-d="M 132.22589,426.78722 C 94.924051,233.38768 47.396396,311.01021 145.68959,161.77186 166.29407,130.48811 247.76938,17.274378 321.20374,82.549555 c 73.43439,65.275175 194.63775,-0.721911 290.0832,-11.860475 110.84144,-12.93529 81.52989,-62.8328081 172.1776,88.55863 79.23234,132.32654 126.76664,38.54932 61.77184,219.49403 -23.43678,65.24771 -113.11999,131.88665 36.91772,236.01435 108.16083,75.06472 22.88865,99.48775 -26.73763,205.38448 C 761.48682,1020.5756 812.03383,872.09638 653.22494,917.4742 354.79278,1002.7478 600.81497,805.91044 396.7941,822.33093 192.77321,838.75143 407.97165,1027.8817 194.44198,843.92852 157.07259,811.73526 20.3886,762.65684 70.42562,651.27769 120.46266,539.89856 150.26286,519.73508 132.22589,426.78722 Z"
                     sodipodi:nodetypes="csssssssssssc" />
                </g>
              </g>
            </g>
          </g>
        </g>
      </g>
    </g>
    <ellipse
       style="opacity:1;fill:#ffffff;fill-opacity:0;stroke:#cccccc;stroke-width:22.965;stroke-miterlimit:4;stroke-dasharray:none;stroke-opacity:1"
       id="path8528"
       cx="351.63992"
       cy="524.89313"
       rx="116.18215"
       ry="116.54651" />
    <ellipse
       style="fill:#ffffff;fill-opacity:0;stroke:#999999;stroke-width:15.8102;stroke-miterlimit:4;stroke-dasharray:none;stroke-opacity:1"
       id="path8528-3"
       cx="611.90039"
       cy="233.22118"
       rx="107.15452"
       ry="59.892063" />
    <ellipse
       style="fill:#ffffff;fill-opacity:0;stroke:#808080;stroke-width:25.3213;stroke-miterlimit:4;stroke-dasharray:none;stroke-opacity:1"
       id="path8528-6"
       cx="679.26508"
       cy="681.51898"
       rx="99.129906"
       ry="166.06306" />
    <ellipse
       style="fill:#b3b3b3;fill-opacity:0;stroke:#ececec;stroke-width:9.78348;stroke-miterlimit:4;stroke-dasharray:none;stroke-opacity:1"
       id="path8528-7"
       cx="280.44128"
       cy="218.18501"
       rx="61.290222"
       ry="40.096172" />
    <ellipse
       style="fill:#ffffff;fill-opacity:0;stroke:#808080;stroke-width:7.49469;stroke-miterlimit:4;stroke-dasharray:none;stroke-opacity:1"
       id="path8528-5"
       cx="243.54376"
       cy="730.03839"
       rx="37.990898"
       ry="37.960609" />
    <ellipse
       style="fill:#ffffff;fill-opacity:0;stroke:#ffffff;stroke-width:5.66209;stroke-miterlimit:4;stroke-dasharray:none;stroke-opacity:1"
       id="path8528-35"
       cx="440.97223"
       cy="314.35352"
       rx="28.043068"
       ry="29.351748" />
  </g>
</svg>
